{"accessors" : [{"bufferView" : 0, "byteOffset" : 0, "componentType" : 5123, "count" : 264, "type" : "SCALAR", "max" : [263], "min" : [0]}, {"bufferView" : 1, "byteOffset" : 0, "componentType" : 5126, "count" : 264, "type" : "VEC3", "max" : [-3.116607666015625, 203.0342559814453, 202.65892028808594], "min" : [-60.8673095703125, 117.96833038330078, -202.65896606445312], "name" : "POSITION"}, {"bufferView" : 1, "byteOffset" : 12, "componentType" : 5126, "count" : 264, "type" : "VEC3", "max" : [0.9890681505203247, 0.16132692992687225, 0.060481756925582886], "min" : [-0.9999644756317139, -0.9999799132347107, -0.06048177182674408], "name" : "NORMAL"}, {"bufferView" : 1, "byteOffset" : 24, "componentType" : 5126, "count" : 264, "type" : "VEC2", "max" : [0.6250000596046448, -0.7499998807907104], "min" : [0.6249998807907104, -1], "name" : "TEXCOORD_0"}, {"bufferView" : 0, "byteOffset" : 528, "componentType" : 5123, "count" : 1764, "type" : "SCALAR", "max" : [1763], "min" : [0]}, {"bufferView" : 2, "byteOffset" : 0, "componentType" : 5126, "count" : 1764, "type" : "VEC3", "max" : [113.01307678222656, 305.9781494140625, 224.1259307861328], "min" : [-71.75979614257812, 0.0008225440979003906, -224.1259765625], "name" : "POSITION"}, {"bufferView" : 2, "byteOffset" : 12, "componentType" : 5126, "count" : 1764, "type" : "VEC3", "max" : [1.0000044107437134, 1.0000044107437134, 1.0000044107437134], "min" : [-1.0000044107437134, -1.0000044107437134, -1.0000044107437134], "name" : "NORMAL"}, {"bufferView" : 2, "byteOffset" : 24, "componentType" : 5126, "count" : 1764, "type" : "VEC2", "max" : [0.875, -0], "min" : [0.125, -1], "name" : "TEXCOORD_0"}, {"bufferView" : 0, "byteOffset" : 4056, "componentType" : 5123, "count" : 168, "type" : "SCALAR", "max" : [167], "min" : [0]}, {"bufferView" : 3, "byteOffset" : 0, "componentType" : 5126, "count" : 168, "type" : "VEC3", "max" : [-43.32313537597656, 299.9522705078125, 202.65892028808594], "min" : [-65.5426025390625, 250.99949645996094, -202.65896606445312], "name" : "POSITION"}, {"bufferView" : 3, "byteOffset" : 12, "componentType" : 5126, "count" : 168, "type" : "VEC3", "max" : [0.993736207485199, 0.9928007125854492, 0.020766712725162506], "min" : [-0.9946584701538086, -0.11950740963220596, -0.02076675184071064], "name" : "NORMAL"}, {"bufferView" : 3, "byteOffset" : 24, "componentType" : 5126, "count" : 168, "type" : "VEC2", "max" : [0.625, -0.9166666269302368], "min" : [0.625, -1], "name" : "TEXCOORD_0"}], "asset" : {"generator" : "Aspose.3D 23.9.0", "version" : "2.0"}, "buffers" : [{"uri" : "data:application/octet-stream;base64,", "byteLength" : 74680}], "bufferViews" : [{"buffer" : 0, "byteOffset" : 0, "byteLength" : 4392, "target" : 34963}, {"buffer" : 0, "byteOffset" : 4396, "byteLength" : 8448, "byteStride" : 32, "target" : 34962}, {"buffer" : 0, "byteOffset" : 12848, "byteLength" : 56448, "byteStride" : 32, "target" : 34962}, {"buffer" : 0, "byteOffset" : 69300, "byteLength" : 5376, "byteStride" : 32, "target" : 34962}], "materials" : [{"name" : "Bench Wood Dark", "pbrMetallicRoughness" : {"baseColorFactor" : [0.17430733144283295, 0.05399024486541748, 0.008405174128711224, 1], "metallicFactor" : 0, "roughnessFactor" : 0}, "emissiveFactor" : [0, 0, 0], "alphaMode" : "OPAQUE", "doubleSided" : false}, {"name" : "Bench Wood Light", "pbrMetallicRoughness" : {"baseColorFactor" : [0.08983473479747772, 0.030853619799017906, 0.005620338022708893, 1], "metallicFactor" : 0, "roughnessFactor" : 0}, "emissiveFactor" : [0, 0, 0], "alphaMode" : "OPAQUE", "doubleSided" : false}, {"name" : "Bench Wood Med", "pbrMetallicRoughness" : {"baseColorFactor" : [0.07563594728708267, 0.02638334035873413, 0.004898754879832268, 1], "metallicFactor" : 0, "roughnessFactor" : 0}, "emissiveFactor" : [0, 0, 0], "alphaMode" : "OPAQUE", "doubleSided" : false}], "meshes" : [{"primitives" : [{"attributes" : {"POSITION" : 1, "NORMAL" : 2, "TEXCOORD_0" : 3}, "indices" : 0, "material" : 0, "mode" : 4}, {"attributes" : {"POSITION" : 5, "NORMAL" : 6, "TEXCOORD_0" : 7}, "indices" : 4, "material" : 1, "mode" : 4}, {"attributes" : {"POSITION" : 9, "NORMAL" : 10, "TEXCOORD_0" : 11}, "indices" : 8, "material" : 2, "mode" : 4}], "name" : "Cube.267"}], "nodes" : [{"matrix" : [0.7225216627119437, -1.0648803761536824E-14, -4.708548967006525E-07, 0, -6.606319851767135E-14, 0.7225216627120875, -1.1771372417514595E-07, 0, 4.70854896700648E-07, 1.17713724175164E-07, 0.7225216627119341, 0, -6.776263578034403E-19, 0, 1.4210854715202004E-12, 1], "mesh" : 0, "name" : "Cube.267"}], "scene" : 0, "scenes" : [{"nodes" : [0]}]}