{"accessors" : [{"bufferView" : 0, "byteOffset" : 0, "componentType" : 5123, "count" : 2460, "type" : "SCALAR", "max" : [2459], "min" : [0]}, {"bufferView" : 1, "byteOffset" : 0, "componentType" : 5126, "count" : 2460, "type" : "VEC3", "max" : [421.5692138671875, 232.0048828125, 276.81695556640625], "min" : [-263.7354431152344, 0.004851818084716797, -413.6879577636719], "name" : "POSITION"}, {"bufferView" : 1, "byteOffset" : 12, "componentType" : 5126, "count" : 2460, "type" : "VEC3", "max" : [1.0000044107437134, 1.0000044107437134, 1.0000044107437134], "min" : [-1.0000044107437134, -1.0000044107437134, -1.0000044107437134], "name" : "NORMAL"}, {"bufferView" : 1, "byteOffset" : 24, "componentType" : 5126, "count" : 2460, "type" : "VEC2", "max" : [1.1908624172210693, 0.2854000926017761], "min" : [-0.316875159740448, -1.1908624172210693], "name" : "TEXCOORD_0"}, {"bufferView" : 0, "byteOffset" : 4920, "componentType" : 5123, "count" : 378, "type" : "SCALAR", "max" : [377], "min" : [0]}, {"bufferView" : 2, "byteOffset" : 0, "componentType" : 5126, "count" : 378, "type" : "VEC3", "max" : [250.5692901611328, 220.11485290527344, 166.81703186035156], "min" : [-252.73538208007812, 20.004833221435547, -402.68792724609375], "name" : "POSITION"}, {"bufferView" : 2, "byteOffset" : 12, "componentType" : 5126, "count" : 378, "type" : "VEC3", "max" : [1.0000044107437134, 1.0000044107437134, 1.0000044107437134], "min" : [-1.1531099630701647E-08, -1.1558556707313983E-06, 0], "name" : "NORMAL"}, {"bufferView" : 2, "byteOffset" : 24, "componentType" : 5126, "count" : 378, "type" : "VEC2", "max" : [0.9710911512374878, 0.2556948661804199], "min" : [-0.2871699929237366, -1.1655676364898682], "name" : "TEXCOORD_0"}], "asset" : {"generator" : "Aspose.3D 23.9.0", "version" : "2.0"}, "buffers" : [{"uri" : "data:application/octet-stream;base64,", "byteLength" : 96504}], "bufferViews" : [{"buffer" : 0, "byteOffset" : 0, "byteLength" : 5676, "target" : 34963}, {"buffer" : 0, "byteOffset" : 5680, "byteLength" : 78720, "byteStride" : 32, "target" : 34962}, {"buffer" : 0, "byteOffset" : 84404, "byteLength" : 12096, "byteStride" : 32, "target" : 34962}], "materials" : [{"name" : "Material.015", "pbrMetallicRoughness" : {"baseColorFactor" : [1, 0.577681839466095, 0.29142045974731445, 1], "metallicFactor" : 0, "roughnessFactor" : 0}, "emissiveFactor" : [0, 0, 0], "alphaMode" : "OPAQUE", "doubleSided" : false}, {"name" : "Stairs", "pbrMetallicRoughness" : {"baseColorFactor" : [0.17872503399848938, 0.05716927722096443, 0.006055297330021858, 1], "metallicFactor" : 0, "roughnessFactor" : 0}, "emissiveFactor" : [0, 0, 0], "alphaMode" : "OPAQUE", "doubleSided" : false}], "meshes" : [{"primitives" : [{"attributes" : {"POSITION" : 1, "NORMAL" : 2, "TEXCOORD_0" : 3}, "indices" : 0, "material" : 0, "mode" : 4}, {"attributes" : {"POSITION" : 5, "NORMAL" : 6, "TEXCOORD_0" : 7}, "indices" : 4, "material" : 1, "mode" : 4}], "name" : "building_003_mesh"}], "nodes" : [{"matrix" : [1.558990716934204, 0, 0, 0, 0, 1.7438806295394664, -2.8411420184127494E-07, 0, 0, 2.257830794428047E-07, 1.3858467340469176, 0, 0, -1.1920928955078125E-05, 5.6843418860808015E-12, 1], "mesh" : 0, "name" : "building_ol"}], "scene" : 0, "scenes" : [{"nodes" : [0]}]}