{"accessors" : [{"bufferView" : 0, "byteOffset" : 0, "componentType" : 5123, "count" : 960, "type" : "SCALAR", "max" : [959], "min" : [0]}, {"bufferView" : 1, "byteOffset" : 0, "componentType" : 5126, "count" : 960, "type" : "VEC3", "max" : [1.606589436531067, 1.3151018619537354, 1.791160225868225], "min" : [-2.2349841594696045, -1.315102458000183, 0.2139989137649536], "name" : "POSITION"}, {"bufferView" : 1, "byteOffset" : 12, "componentType" : 5126, "count" : 960, "type" : "VEC3", "max" : [1.0000044107437134, 1.0000044107437134, 1.0000044107437134], "min" : [-1.0000044107437134, -1.0000044107437134, -1.0000044107437134], "name" : "NORMAL"}, {"bufferView" : 1, "byteOffset" : 24, "componentType" : 5126, "count" : 960, "type" : "VEC2", "max" : [0.875, -0], "min" : [0.125, -1], "name" : "TEXCOORD_0"}, {"bufferView" : 0, "byteOffset" : 1920, "componentType" : 5123, "count" : 48, "type" : "SCALAR", "max" : [47], "min" : [0]}, {"bufferView" : 2, "byteOffset" : 0, "componentType" : 5126, "count" : 48, "type" : "VEC3", "max" : [1.5069361925125122, 0.9043888449668884, 1.6771680116653442], "min" : [-0.9644726514816284, -0.9043895602226257, 0.9694501161575317], "name" : "POSITION"}, {"bufferView" : 2, "byteOffset" : 12, "componentType" : 5126, "count" : 48, "type" : "VEC3", "max" : [0.9259539842605591, 0.9469221830368042, 0.49013879895210266], "min" : [-0.871649444103241, -0.9469221830368042, 0.32147663831710815], "name" : "NORMAL"}, {"bufferView" : 2, "byteOffset" : 24, "componentType" : 5126, "count" : 48, "type" : "VEC2", "max" : [0.779411792755127, -0.625], "min" : [0.6249998807907104, -0.8980993032455444], "name" : "TEXCOORD_0"}, {"bufferView" : 0, "byteOffset" : 2016, "componentType" : 5123, "count" : 60, "type" : "SCALAR", "max" : [59], "min" : [0]}, {"bufferView" : 3, "byteOffset" : 0, "componentType" : 5126, "count" : 60, "type" : "VEC3", "max" : [1.650899052619934, 0.8937005400657654, 0.7092958688735962], "min" : [1.606589436531067, -0.8937012553215027, 0.5967036485671997], "name" : "POSITION"}, {"bufferView" : 3, "byteOffset" : 12, "componentType" : 5126, "count" : 60, "type" : "VEC3", "max" : [1.0000044107437134, 1.0000042915344238, 1.0000044107437134], "min" : [0, -1.0000042915344238, -1.0000044107437134], "name" : "NORMAL"}, {"bufferView" : 3, "byteOffset" : 24, "componentType" : 5126, "count" : 60, "type" : "VEC2", "max" : [0.5237584114074707, -0.660632848739624], "min" : [0.4762415289878845, -0.714367151260376], "name" : "TEXCOORD_0"}, {"bufferView" : 0, "byteOffset" : 2136, "componentType" : 5123, "count" : 156, "type" : "SCALAR", "max" : [155], "min" : [0]}, {"bufferView" : 4, "byteOffset" : 0, "componentType" : 5126, "count" : 156, "type" : "VEC3", "max" : [1.6842824220657349, 0.9999997019767761, 0.5039087533950806], "min" : [-2.2349841594696045, -1.0000003576278687, 0.24704039096832275], "name" : "POSITION"}, {"bufferView" : 4, "byteOffset" : 12, "componentType" : 5126, "count" : 156, "type" : "VEC3", "max" : [1.0000044107437134, 1.0000044107437134, 1.0000044107437134], "min" : [-1.0000044107437134, -1.0000044107437134, -1.0000044107437134], "name" : "NORMAL"}, {"bufferView" : 4, "byteOffset" : 24, "componentType" : 5126, "count" : 156, "type" : "VEC2", "max" : [0.6250000596046448, -0], "min" : [0.375, -0.75], "name" : "TEXCOORD_0"}, {"bufferView" : 0, "byteOffset" : 2448, "componentType" : 5123, "count" : 984, "type" : "SCALAR", "max" : [983], "min" : [0]}, {"bufferView" : 5, "byteOffset" : 0, "componentType" : 5126, "count" : 984, "type" : "VEC3", "max" : [1.3212758302688599, 1.137880802154541, 0.5583177804946899], "min" : [-1.7622565031051636, -1.1378813982009888, -0.0009359121322631836], "name" : "POSITION"}, {"bufferView" : 5, "byteOffset" : 12, "componentType" : 5126, "count" : 984, "type" : "VEC3", "max" : [0.9659308195114136, 1.0000044107437134, 0.965930163860321], "min" : [-0.9659305810928345, -1.0000044107437134, -0.9659302234649658], "name" : "NORMAL"}, {"bufferView" : 5, "byteOffset" : 24, "componentType" : 5126, "count" : 984, "type" : "VEC2", "max" : [1, -0.01000000536441803], "min" : [7.450580596923828E-08, -1], "name" : "TEXCOORD_0"}, {"bufferView" : 0, "byteOffset" : 4416, "componentType" : 5123, "count" : 696, "type" : "SCALAR", "max" : [695], "min" : [0]}, {"bufferView" : 6, "byteOffset" : 0, "componentType" : 5126, "count" : 696, "type" : "VEC3", "max" : [1.2363654375076294, 1.1320760250091553, 0.4734073877334595], "min" : [-1.677346110343933, -1.1320767402648926, 0.08397448062896729], "name" : "POSITION"}, {"bufferView" : 6, "byteOffset" : 12, "componentType" : 5126, "count" : 696, "type" : "VEC3", "max" : [0.9659305810928345, 1.0000044107437134, 0.9659302830696106], "min" : [-0.965931236743927, -1.0000044107437134, -0.9659299850463867], "name" : "NORMAL"}, {"bufferView" : 6, "byteOffset" : 24, "componentType" : 5126, "count" : 696, "type" : "VEC2", "max" : [0.4171225428581238, -0.0828775092959404], "min" : [0.0828775092959404, -0.4171225428581238], "name" : "TEXCOORD_0"}, {"bufferView" : 0, "byteOffset" : 5808, "componentType" : 5123, "count" : 324, "type" : "SCALAR", "max" : [323], "min" : [0]}, {"bufferView" : 7, "byteOffset" : 0, "componentType" : 5126, "count" : 324, "type" : "VEC3", "max" : [-1.8776644468307495, 0.7148144841194153, 0.8670698404312134], "min" : [-2.1290595531463623, -0.7148151993751526, 0.615674614906311], "name" : "POSITION"}, {"bufferView" : 7, "byteOffset" : 12, "componentType" : 5126, "count" : 324, "type" : "VEC3", "max" : [1.0000044107437134, 0.9145084619522095, 0.9323436617851257], "min" : [-1.0000044107437134, -0.9145084619522095, -0.932343602180481], "name" : "NORMAL"}, {"bufferView" : 7, "byteOffset" : 24, "componentType" : 5126, "count" : 324, "type" : "VEC2", "max" : [1, -0.01000000536441803], "min" : [0, -1], "name" : "TEXCOORD_0"}, {"bufferView" : 0, "byteOffset" : 6456, "componentType" : 5123, "count" : 36, "type" : "SCALAR", "max" : [35], "min" : [0]}, {"bufferView" : 8, "byteOffset" : 0, "componentType" : 5126, "count" : 36, "type" : "VEC3", "max" : [-2.1114728450775146, 0.6800004839897156, 0.834473729133606], "min" : [-2.1114728450775146, -0.6800011992454529, 0.6482707262039185], "name" : "POSITION"}, {"bufferView" : 8, "byteOffset" : 12, "componentType" : 5126, "count" : 36, "type" : "VEC3", "max" : [-1.0000044107437134, 0, 3.201073184300185E-07], "min" : [-1.0000044107437134, 0, 3.2010729000830906E-07], "name" : "NORMAL"}, {"bufferView" : 8, "byteOffset" : 24, "componentType" : 5126, "count" : 36, "type" : "VEC2", "max" : [0.9277628660202026, -0.07223714143037796], "min" : [0.5722370743751526, -0.42776283621788025], "name" : "TEXCOORD_0"}], "asset" : {"generator" : "Aspose.3D 23.9.0", "version" : "2.0"}, "buffers" : [{"uri" : "data:application/octet-stream;base64,", "byteLength" : 111012}], "bufferViews" : [{"buffer" : 0, "byteOffset" : 0, "byteLength" : 6528, "target" : 34963}, {"buffer" : 0, "byteOffset" : 6532, "byteLength" : 30720, "byteStride" : 32, "target" : 34962}, {"buffer" : 0, "byteOffset" : 37256, "byteLength" : 1536, "byteStride" : 32, "target" : 34962}, {"buffer" : 0, "byteOffset" : 38796, "byteLength" : 1920, "byteStride" : 32, "target" : 34962}, {"buffer" : 0, "byteOffset" : 40720, "byteLength" : 4992, "byteStride" : 32, "target" : 34962}, {"buffer" : 0, "byteOffset" : 45716, "byteLength" : 31488, "byteStride" : 32, "target" : 34962}, {"buffer" : 0, "byteOffset" : 77208, "byteLength" : 22272, "byteStride" : 32, "target" : 34962}, {"buffer" : 0, "byteOffset" : 99484, "byteLength" : 10368, "byteStride" : 32, "target" : 34962}, {"buffer" : 0, "byteOffset" : 109856, "byteLength" : 1152, "byteStride" : 32, "target" : 34962}], "materials" : [{"name" : "Material.026", "pbrMetallicRoughness" : {"baseColorFactor" : [0.49579089879989624, 0.49579089879989624, 0.49579089879989624, 1], "metallicFactor" : 0, "roughnessFactor" : 0}, "emissiveFactor" : [0, 0, 0], "alphaMode" : "OPAQUE", "doubleSided" : false}, {"name" : "Glass", "pbrMetallicRoughness" : {"baseColorFactor" : [0, 0, 0, 1], "metallicFactor" : 0, "roughnessFactor" : 0}, "emissiveFactor" : [0, 0, 0], "alphaMode" : "OPAQUE", "doubleSided" : false}, {"name" : "backlights", "pbrMetallicRoughness" : {"baseColorFactor" : [0.4575289487838745, 0.017567293718457222, 0.015692025423049927, 1], "metallicFactor" : 0, "roughnessFactor" : 0}, "emissiveFactor" : [0, 0, 0], "alphaMode" : "OPAQUE", "doubleSided" : false}, {"name" : "bumper", "pbrMetallicRoughness" : {"baseColorFactor" : [0.017386874184012413, 0.015830526128411293, 0.015830526128411293, 1], "metallicFactor" : 0, "roughnessFactor" : 0}, "emissiveFactor" : [0, 0, 0], "alphaMode" : "OPAQUE", "doubleSided" : false}, {"name" : "tyre", "pbrMetallicRoughness" : {"baseColorFactor" : [0, 0, 0, 1], "metallicFactor" : 0, "roughnessFactor" : 0}, "emissiveFactor" : [0, 0, 0], "alphaMode" : "OPAQUE", "doubleSided" : false}, {"name" : "rim", "pbrMetallicRoughness" : {"baseColorFactor" : [0.3423793613910675, 0.3423793613910675, 0.3423793613910675, 1], "metallicFactor" : 0, "roughnessFactor" : 0}, "emissiveFactor" : [0, 0, 0], "alphaMode" : "OPAQUE", "doubleSided" : false}, {"name" : "headlight rim", "pbrMetallicRoughness" : {"baseColorFactor" : [0.025393135845661163, 0.025393135845661163, 0.025393135845661163, 1], "metallicFactor" : 0, "roughnessFactor" : 0}, "emissiveFactor" : [0, 0, 0], "alphaMode" : "OPAQUE", "doubleSided" : false}, {"name" : "light", "pbrMetallicRoughness" : {"baseColorFactor" : [0.8000000715255737, 0.5053752064704895, 0.024847107008099556, 1], "metallicFactor" : 0, "roughnessFactor" : 0}, "emissiveFactor" : [0, 0, 0], "alphaMode" : "OPAQUE", "doubleSided" : false}], "meshes" : [{"primitives" : [{"attributes" : {"POSITION" : 1, "NORMAL" : 2, "TEXCOORD_0" : 3}, "indices" : 0, "material" : 0, "mode" : 4}, {"attributes" : {"POSITION" : 5, "NORMAL" : 6, "TEXCOORD_0" : 7}, "indices" : 4, "material" : 1, "mode" : 4}, {"attributes" : {"POSITION" : 9, "NORMAL" : 10, "TEXCOORD_0" : 11}, "indices" : 8, "material" : 2, "mode" : 4}, {"attributes" : {"POSITION" : 13, "NORMAL" : 14, "TEXCOORD_0" : 15}, "indices" : 12, "material" : 3, "mode" : 4}, {"attributes" : {"POSITION" : 17, "NORMAL" : 18, "TEXCOORD_0" : 19}, "indices" : 16, "material" : 4, "mode" : 4}, {"attributes" : {"POSITION" : 21, "NORMAL" : 22, "TEXCOORD_0" : 23}, "indices" : 20, "material" : 5, "mode" : 4}, {"attributes" : {"POSITION" : 25, "NORMAL" : 26, "TEXCOORD_0" : 27}, "indices" : 24, "material" : 6, "mode" : 4}, {"attributes" : {"POSITION" : 29, "NORMAL" : 30, "TEXCOORD_0" : 31}, "indices" : 28, "material" : 7, "mode" : 4}], "name" : "Cube.005"}], "nodes" : [{"matrix" : [188.91424560546875, 0, 0, 0, 0, -3.077803727121786E-05, -188.91424560546622, 0, 0, 188.91424560546622, -3.077803727121786E-05, 0, -5.9604644775390625E-06, 1.1920928955078125E-05, 0, 1], "mesh" : 0, "name" : "Cube"}], "scene" : 0, "scenes" : [{"nodes" : [0]}]}