{"accessors" : [{"bufferView" : 0, "byteOffset" : 0, "componentType" : 5123, "count" : 2679, "type" : "SCALAR", "max" : [2678], "min" : [0]}, {"bufferView" : 1, "byteOffset" : 0, "componentType" : 5126, "count" : 2679, "type" : "VEC3", "max" : [0.3583933413028717, 1.3950226306915283, 2.5907623767852783], "min" : [-0.3583934009075165, -2.0040783882141113, 0.011310561560094357], "name" : "POSITION"}, {"bufferView" : 1, "byteOffset" : 12, "componentType" : 5126, "count" : 2679, "type" : "VEC3", "max" : [1.0000038146972656, 1.0000014305114746, 1.0000017881393433], "min" : [-1.0000044107437134, -1.0000022649765015, -1.0000003576278687], "name" : "NORMAL"}, {"bufferView" : 1, "byteOffset" : 24, "componentType" : 5126, "count" : 2679, "type" : "VEC2", "max" : [1, -0], "min" : [0, -1], "name" : "TEXCOORD_0"}, {"bufferView" : 0, "byteOffset" : 5360, "componentType" : 5123, "count" : 534, "type" : "SCALAR", "max" : [533], "min" : [0]}, {"bufferView" : 2, "byteOffset" : 0, "componentType" : 5126, "count" : 534, "type" : "VEC3", "max" : [0.28188660740852356, 1.0249663591384888, 2.698873281478882], "min" : [-0.28188714385032654, -1.4644578695297241, 0.010455410927534103], "name" : "POSITION"}, {"bufferView" : 2, "byteOffset" : 12, "componentType" : 5126, "count" : 534, "type" : "VEC3", "max" : [1.0000044107437134, 0.9531875848770142, 0.9873130917549133], "min" : [-1.0000044107437134, -0.9914547204971313, -0.9997888207435608], "name" : "NORMAL"}, {"bufferView" : 2, "byteOffset" : 24, "componentType" : 5126, "count" : 534, "type" : "VEC2", "max" : [1, -0], "min" : [0, -0], "name" : "TEXCOORD_0"}, {"bufferView" : 0, "byteOffset" : 6428, "componentType" : 5123, "count" : 12, "type" : "SCALAR", "max" : [11], "min" : [0]}, {"bufferView" : 3, "byteOffset" : 0, "componentType" : 5126, "count" : 12, "type" : "VEC3", "max" : [0.2567042410373688, -1.3372602462768555, 2.440121650695801], "min" : [-0.2495437115430832, -1.4277780055999756, 2.3451342582702637], "name" : "POSITION"}, {"bufferView" : 3, "byteOffset" : 12, "componentType" : 5126, "count" : 12, "type" : "VEC3", "max" : [0.999981701374054, 0.006623013410717249, 0.0012120046885684133], "min" : [-0.9999817609786987, 0.006622138898819685, 0.0012119895545765758], "name" : "NORMAL"}, {"bufferView" : 3, "byteOffset" : 24, "componentType" : 5126, "count" : 12, "type" : "VEC2", "max" : [0.625, -0.5], "min" : [0.375, -0.75], "name" : "TEXCOORD_0"}], "asset" : {"generator" : "Aspose.3D 23.9.0", "version" : "2.0"}, "buffers" : [{"uri" : "data:application/octet-stream;base64,", "byteLength" : 109668}], "bufferViews" : [{"buffer" : 0, "byteOffset" : 0, "byteLength" : 6452, "target" : 34963}, {"buffer" : 0, "byteOffset" : 6456, "byteLength" : 85728, "byteStride" : 32, "target" : 34962}, {"buffer" : 0, "byteOffset" : 92188, "byteLength" : 17088, "byteStride" : 32, "target" : 34962}, {"buffer" : 0, "byteOffset" : 109280, "byteLength" : 384, "byteStride" : 32, "target" : 34962}], "materials" : [{"name" : "Material", "pbrMetallicRoughness" : {"baseColorFactor" : [0.800000011920929, 0.800000011920929, 0.800000011920929, 1], "metallicFactor" : 0, "roughnessFactor" : 0}, "emissiveFactor" : [0, 0, 0], "alphaMode" : "OPAQUE", "doubleSided" : false}, {"name" : "Material.001", "pbrMetallicRoughness" : {"baseColorFactor" : [0.06997796893119812, 0.06997796893119812, 0.06997796893119812, 1], "metallicFactor" : 0, "roughnessFactor" : 0}, "emissiveFactor" : [0, 0, 0], "alphaMode" : "OPAQUE", "doubleSided" : false}, {"name" : "Material.002", "pbrMetallicRoughness" : {"baseColorFactor" : [0.800000011920929, 0.800000011920929, 0.800000011920929, 1], "metallicFactor" : 0, "roughnessFactor" : 0}, "emissiveFactor" : [0, 0, 0], "alphaMode" : "OPAQUE", "doubleSided" : false}], "meshes" : [{"primitives" : [{"attributes" : {"POSITION" : 1, "NORMAL" : 2, "TEXCOORD_0" : 3}, "indices" : 0, "material" : 0, "mode" : 4}, {"attributes" : {"POSITION" : 5, "NORMAL" : 6, "TEXCOORD_0" : 7}, "indices" : 4, "material" : 1, "mode" : 4}, {"attributes" : {"POSITION" : 9, "NORMAL" : 10, "TEXCOORD_0" : 11}, "indices" : 8, "material" : 2, "mode" : 4}], "name" : "Plane"}], "nodes" : [{"matrix" : [100, 0, 0, 0, 0, -4.371139000186241E-06, -99.9999999999999, 0, 0, 99.9999999999999, -4.371139000186241E-06, 0, 0, 0, 0, 1], "mesh" : 0, "name" : "Plane"}], "scene" : 0, "scenes" : [{"nodes" : [0]}]}