{"accessors" : [{"bufferView" : 0, "byteOffset" : 0, "componentType" : 5123, "count" : 1854, "type" : "SCALAR", "max" : [1853], "min" : [0]}, {"bufferView" : 1, "byteOffset" : 0, "componentType" : 5126, "count" : 1854, "type" : "VEC3", "max" : [2.5985825061798096, 0.3454275131225586, 4.675876617431641], "min" : [-2.5985825061798096, -0.2876652777194977, 3.6919515132904053], "name" : "POSITION"}, {"bufferView" : 1, "byteOffset" : 12, "componentType" : 5126, "count" : 1854, "type" : "VEC3", "max" : [0.9950700402259827, 0.9907677173614502, 0.9997740387916565], "min" : [-0.9950699806213379, -1.0000044107437134, -0.9995063543319702], "name" : "NORMAL"}, {"bufferView" : 0, "byteOffset" : 3708, "componentType" : 5123, "count" : 414, "type" : "SCALAR", "max" : [413], "min" : [0]}, {"bufferView" : 2, "byteOffset" : 0, "componentType" : 5126, "count" : 414, "type" : "VEC3", "max" : [0.4520476758480072, 0.09560379385948181, 0.1632927805185318], "min" : [-0.4520476758480072, -0.5433816313743591, 0.003359315451234579], "name" : "POSITION"}, {"bufferView" : 2, "byteOffset" : 12, "componentType" : 5126, "count" : 414, "type" : "VEC3", "max" : [0.9992153644561768, 0.978463351726532, 1.0000044107437134], "min" : [-0.9975290298461914, -0.9670499563217163, -1.0000044107437134], "name" : "NORMAL"}, {"bufferView" : 0, "byteOffset" : 4536, "componentType" : 5123, "count" : 660, "type" : "SCALAR", "max" : [659], "min" : [0]}, {"bufferView" : 3, "byteOffset" : 0, "componentType" : 5126, "count" : 660, "type" : "VEC3", "max" : [0.2574375569820404, 0.39939913153648376, 4.844611167907715], "min" : [-0.2574375569820404, -0.25012335181236267, 4.3800249099731445], "name" : "POSITION"}, {"bufferView" : 3, "byteOffset" : 12, "componentType" : 5126, "count" : 660, "type" : "VEC3", "max" : [0.9968985915184021, 0.9914072155952454, 0.9957400560379028], "min" : [-0.9968985915184021, -0.991407036781311, -0.9944338798522949], "name" : "NORMAL"}, {"bufferView" : 0, "byteOffset" : 5856, "componentType" : 5123, "count" : 1752, "type" : "SCALAR", "max" : [1751], "min" : [0]}, {"bufferView" : 4, "byteOffset" : 0, "componentType" : 5126, "count" : 1752, "type" : "VEC3", "max" : [2.0442535877227783, 0.4833149015903473, 4.080792427062988], "min" : [-2.0442535877227783, -0.3920523226261139, 1.1551976203918457], "name" : "POSITION"}, {"bufferView" : 4, "byteOffset" : 12, "componentType" : 5126, "count" : 1752, "type" : "VEC3", "max" : [0.9972875118255615, 0.999848484992981, 0.999489426612854], "min" : [-0.997287392616272, -0.9998836517333984, -0.9976657032966614], "name" : "NORMAL"}, {"bufferView" : 0, "byteOffset" : 9360, "componentType" : 5123, "count" : 756, "type" : "SCALAR", "max" : [755], "min" : [0]}, {"bufferView" : 5, "byteOffset" : 0, "componentType" : 5126, "count" : 756, "type" : "VEC3", "max" : [0.46516746282577515, 0.38794296979904175, 2.6528708934783936], "min" : [-0.46516746282577515, -0.3325873911380768, 0.14793245494365692], "name" : "POSITION"}, {"bufferView" : 5, "byteOffset" : 12, "componentType" : 5126, "count" : 756, "type" : "VEC3", "max" : [0.9965152740478516, 0.9892935752868652, 0.5024229884147644], "min" : [-0.9965152144432068, -0.9956631660461426, -0.9995265007019043], "name" : "NORMAL"}], "asset" : {"generator" : "Aspose.3D 23.9.0", "version" : "2.0"}, "buffers" : [{"uri" : "data:application/octet-stream;base64,", "byteLength" : 141360}], "bufferViews" : [{"buffer" : 0, "byteOffset" : 0, "byteLength" : 10872, "target" : 34963}, {"buffer" : 0, "byteOffset" : 10876, "byteLength" : 44496, "byteStride" : 24, "target" : 34962}, {"buffer" : 0, "byteOffset" : 55376, "byteLength" : 9936, "byteStride" : 24, "target" : 34962}, {"buffer" : 0, "byteOffset" : 65316, "byteLength" : 15840, "byteStride" : 24, "target" : 34962}, {"buffer" : 0, "byteOffset" : 81160, "byteLength" : 42048, "byteStride" : 24, "target" : 34962}, {"buffer" : 0, "byteOffset" : 123212, "byteLength" : 18144, "byteStride" : 24, "target" : 34962}], "materials" : [{"name" : "Skin", "pbrMetallicRoughness" : {"baseColorFactor" : [0.23301447927951813, 0.15598854422569275, 0.11735323816537857, 1], "metallicFactor" : 0, "roughnessFactor" : 0}, "emissiveFactor" : [0, 0, 0], "alphaMode" : "OPAQUE", "doubleSided" : false}, {"name" : "Eyes", "pbrMetallicRoughness" : {"baseColorFactor" : [0.025392768904566765, 0.025392768904566765, 0.025392768904566765, 1], "metallicFactor" : 0, "roughnessFactor" : 0}, "emissiveFactor" : [0, 0, 0], "alphaMode" : "OPAQUE", "doubleSided" : false}, {"name" : "Hair", "pbrMetallicRoughness" : {"baseColorFactor" : [0.052216388285160065, 0.03497478738427162, 0.0360228605568409, 1], "metallicFactor" : 0, "roughnessFactor" : 0}, "emissiveFactor" : [0, 0, 0], "alphaMode" : "OPAQUE", "doubleSided" : false}, {"name" : "Shirt", "pbrMetallicRoughness" : {"baseColorFactor" : [0.14500659704208374, 0.18446582555770874, 0.11096775531768799, 1], "metallicFactor" : 0, "roughnessFactor" : 0}, "emissiveFactor" : [0, 0, 0], "alphaMode" : "OPAQUE", "doubleSided" : false}, {"name" : "Pants", "pbrMetallicRoughness" : {"baseColorFactor" : [0.06448498368263245, 0.0897023007273674, 0.15743094682693481, 1], "metallicFactor" : 0, "roughnessFactor" : 0}, "emissiveFactor" : [0, 0, 0], "alphaMode" : "OPAQUE", "doubleSided" : false}], "meshes" : [{"primitives" : [{"attributes" : {"POSITION" : 1, "NORMAL" : 2}, "indices" : 0, "material" : 0, "mode" : 4}, {"attributes" : {"POSITION" : 4, "NORMAL" : 5}, "indices" : 3, "material" : 1, "mode" : 4}, {"attributes" : {"POSITION" : 7, "NORMAL" : 8}, "indices" : 6, "material" : 2, "mode" : 4}, {"attributes" : {"POSITION" : 10, "NORMAL" : 11}, "indices" : 9, "material" : 3, "mode" : 4}, {"attributes" : {"POSITION" : 13, "NORMAL" : 14}, "indices" : 12, "material" : 4, "mode" : 4}], "name" : "Cylinder.002"}], "nodes" : [{"matrix" : [100, 0, 0, 0, 0, -4.371139000186241E-06, -99.9999999999999, 0, 0, 99.9999999999999, -4.371139000186241E-06, 0, 0, 0, 0, 1], "mesh" : 0, "name" : "BaseHuman"}], "scene" : 0, "scenes" : [{"nodes" : [0]}]}