{"accessors" : [{"bufferView" : 0, "byteOffset" : 0, "componentType" : 5123, "count" : 1428, "type" : "SCALAR", "max" : [1427], "min" : [0]}, {"bufferView" : 1, "byteOffset" : 0, "componentType" : 5126, "count" : 1428, "type" : "VEC3", "max" : [107.41680908203125, 146.11241149902344, 106.91786193847656], "min" : [-107.41680908203125, -2.8732261657714844, -107.1585922241211], "name" : "POSITION"}, {"bufferView" : 1, "byteOffset" : 12, "componentType" : 5126, "count" : 1428, "type" : "VEC3", "max" : [0.9577523469924927, 1.0000044107437134, 0.9850253462791443], "min" : [-0.9591960310935974, -0.9999592900276184, -0.9521510004997253], "name" : "NORMAL"}, {"bufferView" : 1, "byteOffset" : 24, "componentType" : 5126, "count" : 1428, "type" : "VEC2", "max" : [0, -0], "min" : [0, -0], "name" : "TEXCOORD_0"}], "asset" : {"generator" : "Aspose.3D 23.9.0", "version" : "2.0"}, "buffers" : [{"uri" : "data:application/octet-stream;base64,", "byteLength" : 48560}], "bufferViews" : [{"buffer" : 0, "byteOffset" : 0, "byteLength" : 2856, "target" : 34963}, {"buffer" : 0, "byteOffset" : 2860, "byteLength" : 45696, "byteStride" : 32, "target" : 34962}], "materials" : [{"name" : "Trash Bag.001", "pbrMetallicRoughness" : {"baseColorFactor" : [0.004776270128786564, 0.004213382955640554, 0.0046432139351964, 1], "metallicFactor" : 0, "roughnessFactor" : 0}, "emissiveFactor" : [0, 0, 0], "alphaMode" : "OPAQUE", "doubleSided" : false}], "meshes" : [{"primitives" : [{"attributes" : {"POSITION" : 1, "NORMAL" : 2, "TEXCOORD_0" : 3}, "indices" : 0, "material" : 0, "mode" : 4}], "name" : "Circle.032"}], "nodes" : [{"matrix" : [0.898356556892395, 0, 0, 0, 0, 0.898356556892383, -1.4636086557189548E-07, 0, 0, 1.4636086557189548E-07, 0.898356556892383, 0, 0, 0, 0, 1], "mesh" : 0, "name" : "Trash Bag 1.001"}], "scene" : 0, "scenes" : [{"nodes" : [0]}]}