{"accessors" : [{"bufferView" : 0, "byteOffset" : 0, "componentType" : 5123, "count" : 612, "type" : "SCALAR", "max" : [611], "min" : [0]}, {"bufferView" : 1, "byteOffset" : 0, "componentType" : 5126, "count" : 612, "type" : "VEC3", "max" : [52.12033462524414, 184.50074768066406, 12.406164169311523], "min" : [-52.12033462524414, -0.022624433040618896, -18.898256301879883], "name" : "POSITION"}, {"bufferView" : 1, "byteOffset" : 12, "componentType" : 5126, "count" : 612, "type" : "VEC3", "max" : [1.0000044107437134, 1.0000044107437134, 1.0000044107437134], "min" : [-1.0000044107437134, -1.0000044107437134, -1.0000044107437134], "name" : "NORMAL"}, {"bufferView" : 1, "byteOffset" : 24, "componentType" : 5126, "count" : 612, "type" : "VEC2", "max" : [1, -0], "min" : [0, -1], "name" : "TEXCOORD_0"}], "asset" : {"generator" : "Aspose.3D 23.9.0", "version" : "2.0"}, "buffers" : [{"uri" : "data:application/octet-stream;base64,", "byteLength" : 20816}], "bufferViews" : [{"buffer" : 0, "byteOffset" : 0, "byteLength" : 1224, "target" : 34963}, {"buffer" : 0, "byteOffset" : 1228, "byteLength" : 19584, "byteStride" : 32, "target" : 34962}], "meshes" : [{"primitives" : [{"attributes" : {"POSITION" : 1, "NORMAL" : 2, "TEXCOORD_0" : 3}, "indices" : 0, "mode" : 4}], "name" : "Cube.002"}], "nodes" : [{"mesh" : 0, "name" : "Human"}], "scene" : 0, "scenes" : [{"nodes" : [0]}]}