{"accessors" : [{"bufferView" : 0, "byteOffset" : 0, "componentType" : 5123, "count" : 324, "type" : "SCALAR", "max" : [323], "min" : [0]}, {"bufferView" : 1, "byteOffset" : 0, "componentType" : 5126, "count" : 324, "type" : "VEC3", "max" : [73.11495208740234, 395.8522033691406, 39.658180236816406], "min" : [-196.52691650390625, 0.0008821487426757812, -46.01610565185547], "name" : "POSITION"}, {"bufferView" : 1, "byteOffset" : 12, "componentType" : 5126, "count" : 324, "type" : "VEC3", "max" : [1.0000044107437134, 1.0000044107437134, 1.0000044107437134], "min" : [-1.0000044107437134, -1.0000044107437134, -1.0000044107437134], "name" : "NORMAL"}, {"bufferView" : 1, "byteOffset" : 24, "componentType" : 5126, "count" : 324, "type" : "VEC2", "max" : [0.875, -0], "min" : [0.125, -1], "name" : "TEXCOORD_0"}, {"bufferView" : 0, "byteOffset" : 648, "componentType" : 5123, "count" : 84, "type" : "SCALAR", "max" : [83], "min" : [0]}, {"bufferView" : 2, "byteOffset" : 0, "componentType" : 5126, "count" : 84, "type" : "VEC3", "max" : [-132.02267456054688, 297.4406433105469, 29.48896026611328], "min" : [-207.76919555664062, 272.6096496582031, 22.95781898498535], "name" : "POSITION"}, {"bufferView" : 2, "byteOffset" : 12, "componentType" : 5126, "count" : 84, "type" : "VEC3", "max" : [1.0000042915344238, 1.0000044107437134, 1.0000044107437134], "min" : [-1.0000042915344238, -1.0000044107437134, -1.0000044107437134], "name" : "NORMAL"}, {"bufferView" : 2, "byteOffset" : 24, "componentType" : 5126, "count" : 84, "type" : "VEC2", "max" : [0.375, -0.7499999403953552], "min" : [0.1249999925494194, -0.75], "name" : "TEXCOORD_0"}, {"bufferView" : 0, "byteOffset" : 816, "componentType" : 5123, "count" : 372, "type" : "SCALAR", "max" : [371], "min" : [0]}, {"bufferView" : 3, "byteOffset" : 0, "componentType" : 5126, "count" : 372, "type" : "VEC3", "max" : [34.49801254272461, 329.03033447265625, 27.06719970703125], "min" : [-218.37252807617188, 0.0008821487426757812, -33.42512512207031], "name" : "POSITION"}, {"bufferView" : 3, "byteOffset" : 12, "componentType" : 5126, "count" : 372, "type" : "VEC3", "max" : [1.0000044107437134, 1.0000044107437134, 1.0000044107437134], "min" : [-1.0000044107437134, -1.0000044107437134, -1.0000044107437134], "name" : "NORMAL"}, {"bufferView" : 3, "byteOffset" : 24, "componentType" : 5126, "count" : 372, "type" : "VEC2", "max" : [0.375, -0.5], "min" : [0.1249999925494194, -0.75], "name" : "TEXCOORD_0"}], "asset" : {"generator" : "Aspose.3D 23.9.0", "version" : "2.0"}, "buffers" : [{"uri" : "data:application/octet-stream;base64,", "byteLength" : 26536}], "bufferViews" : [{"buffer" : 0, "byteOffset" : 0, "byteLength" : 1560, "target" : 34963}, {"buffer" : 0, "byteOffset" : 1564, "byteLength" : 10368, "byteStride" : 32, "target" : 34962}, {"buffer" : 0, "byteOffset" : 11936, "byteLength" : 2688, "byteStride" : 32, "target" : 34962}, {"buffer" : 0, "byteOffset" : 14628, "byteLength" : 11904, "byteStride" : 32, "target" : 34962}], "materials" : [{"name" : "mid tile", "pbrMetallicRoughness" : {"baseColorFactor" : [0.08160870522260666, 0.13357189297676086, 0.04538488760590553, 1], "metallicFactor" : 0, "roughnessFactor" : 0}, "emissiveFactor" : [0, 0, 0], "alphaMode" : "OPAQUE", "doubleSided" : false}, {"name" : "Material.001", "pbrMetallicRoughness" : {"baseColorFactor" : [0.8000000715255737, 0.0043213581666350365, 0.01592264510691166, 1], "metallicFactor" : 0, "roughnessFactor" : 0}, "emissiveFactor" : [0, 0, 0], "alphaMode" : "OPAQUE", "doubleSided" : false}, {"name" : "mailbox", "pbrMetallicRoughness" : {"baseColorFactor" : [0.1491522341966629, 0.1491522341966629, 0.1491522341966629, 1], "metallicFactor" : 0, "roughnessFactor" : 0}, "emissiveFactor" : [0, 0, 0], "alphaMode" : "OPAQUE", "doubleSided" : false}], "meshes" : [{"primitives" : [{"attributes" : {"POSITION" : 1, "NORMAL" : 2, "TEXCOORD_0" : 3}, "indices" : 0, "material" : 0, "mode" : 4}, {"attributes" : {"POSITION" : 5, "NORMAL" : 6, "TEXCOORD_0" : 7}, "indices" : 4, "material" : 1, "mode" : 4}, {"attributes" : {"POSITION" : 9, "NORMAL" : 10, "TEXCOORD_0" : 11}, "indices" : 8, "material" : 2, "mode" : 4}], "name" : "Cube.264"}], "nodes" : [{"matrix" : [-0.587921261787194, -2.4813070767565113E-14, 5.092876963069953E-07, 0, 5.816042954777658E-14, 0.5879212617874067, 9.57845346628906E-08, 0, -5.092876963069926E-07, 9.578453466290504E-08, -0.5879212617871862, 0, 2.2737367544323206E-11, 1.1920928955078125E-05, 2.2737367544323206E-11, 1], "mesh" : 0, "name" : "Cube.264"}], "scene" : 0, "scenes" : [{"nodes" : [0]}]}