{"accessors" : [{"bufferView" : 0, "byteOffset" : 0, "componentType" : 5123, "count" : 13053, "type" : "SCALAR", "max" : [13052], "min" : [0]}, {"bufferView" : 1, "byteOffset" : 0, "componentType" : 5126, "count" : 13053, "type" : "VEC3", "max" : [444.19683837890625, 865.8270874023438, 389.3830261230469], "min" : [-345.06268310546875, 44.36833953857422, -384.2240905761719], "name" : "POSITION"}, {"bufferView" : 1, "byteOffset" : 12, "componentType" : 5126, "count" : 13053, "type" : "VEC3", "max" : [0.9999682307243347, 1.0000044107437134, 0.9999681711196899], "min" : [-0.9999884963035583, -1.0000044107437134, -0.9999681711196899], "name" : "NORMAL"}, {"bufferView" : 1, "byteOffset" : 24, "componentType" : 5126, "count" : 13053, "type" : "VEC2", "max" : [1.0000001192092896, -0], "min" : [0, -0.9491111636161804], "name" : "TEXCOORD_0"}, {"bufferView" : 0, "byteOffset" : 26108, "componentType" : 5123, "count" : 288, "type" : "SCALAR", "max" : [287], "min" : [0]}, {"bufferView" : 2, "byteOffset" : 0, "componentType" : 5126, "count" : 288, "type" : "VEC3", "max" : [499.31146240234375, 627.4682006835938, 473.37957763671875], "min" : [-539.4286499023438, -0.0007530057919211686, -470.2620849609375], "name" : "POSITION"}, {"bufferView" : 2, "byteOffset" : 12, "componentType" : 5126, "count" : 288, "type" : "VEC3", "max" : [0.9999681711196899, 1.0000044107437134, 0.9999681711196899], "min" : [-0.9999681711196899, -1.0000044107437134, -0.9999681711196899], "name" : "NORMAL"}, {"bufferView" : 2, "byteOffset" : 24, "componentType" : 5126, "count" : 288, "type" : "VEC2", "max" : [0.875, -0], "min" : [0, -1], "name" : "TEXCOORD_0"}, {"bufferView" : 0, "byteOffset" : 26684, "componentType" : 5123, "count" : 9918, "type" : "SCALAR", "max" : [9917], "min" : [0]}, {"bufferView" : 3, "byteOffset" : 0, "componentType" : 5126, "count" : 9918, "type" : "VEC3", "max" : [444.1971740722656, 764.6685180664062, 389.46923828125], "min" : [-345.060791015625, 30.167770385742188, -384.2240905761719], "name" : "POSITION"}, {"bufferView" : 3, "byteOffset" : 12, "componentType" : 5126, "count" : 9918, "type" : "VEC3", "max" : [0.9999685287475586, 1.0000044107437134, 0.9999681711196899], "min" : [-1.0000042915344238, -1.0000044107437134, -0.9999684691429138], "name" : "NORMAL"}, {"bufferView" : 3, "byteOffset" : 24, "componentType" : 5126, "count" : 9918, "type" : "VEC2", "max" : [1, -0], "min" : [0, -1], "name" : "TEXCOORD_0"}, {"bufferView" : 0, "byteOffset" : 46520, "componentType" : 5123, "count" : 17862, "type" : "SCALAR", "max" : [17861], "min" : [0]}, {"bufferView" : 4, "byteOffset" : 0, "componentType" : 5126, "count" : 17862, "type" : "VEC3", "max" : [405.1833190917969, 1026.5804443359375, 339.5419006347656], "min" : [-306.23236083984375, 818.5397338867188, -336.7351379394531], "name" : "POSITION"}, {"bufferView" : 4, "byteOffset" : 12, "componentType" : 5126, "count" : 17862, "type" : "VEC3", "max" : [0.9999685287475586, 1.0000044107437134, 0.9993778467178345], "min" : [-0.9999695420265198, -1.000004529953003, -0.999374508857727], "name" : "NORMAL"}, {"bufferView" : 4, "byteOffset" : 24, "componentType" : 5126, "count" : 17862, "type" : "VEC2", "max" : [0.9970976710319519, -0], "min" : [0, -1], "name" : "TEXCOORD_0"}], "asset" : {"generator" : "Aspose.3D 23.9.0", "version" : "2.0"}, "buffers" : [{"uri" : "data:application/octet-stream;base64,", "byteLength" : 1398136}], "bufferViews" : [{"buffer" : 0, "byteOffset" : 0, "byteLength" : 82244, "target" : 34963}, {"buffer" : 0, "byteOffset" : 82248, "byteLength" : 417696, "byteStride" : 32, "target" : 34962}, {"buffer" : 0, "byteOffset" : 499948, "byteLength" : 9216, "byteStride" : 32, "target" : 34962}, {"buffer" : 0, "byteOffset" : 509168, "byteLength" : 317376, "byteStride" : 32, "target" : 34962}, {"buffer" : 0, "byteOffset" : 826548, "byteLength" : 571584, "byteStride" : 32, "target" : 34962}], "materials" : [{"name" : "Material.016", "pbrMetallicRoughness" : {"baseColorFactor" : [0.0012710925657302141, 0.05579736456274986, 0.0014343018410727382, 1], "metallicFactor" : 0, "roughnessFactor" : 0}, "emissiveFactor" : [0, 0, 0], "alphaMode" : "OPAQUE", "doubleSided" : false}, {"name" : "Material.014", "pbrMetallicRoughness" : {"baseColorFactor" : [0.8000000715255737, 0.4813942313194275, 0.2568783164024353, 1], "metallicFactor" : 0, "roughnessFactor" : 0}, "emissiveFactor" : [0, 0, 0], "alphaMode" : "OPAQUE", "doubleSided" : false}, {"name" : "Material.015", "pbrMetallicRoughness" : {"baseColorFactor" : [1, 0.577681839466095, 0.29142045974731445, 1], "metallicFactor" : 0, "roughnessFactor" : 0}, "emissiveFactor" : [0, 0, 0], "alphaMode" : "OPAQUE", "doubleSided" : false}, {"name" : "Material.018", "pbrMetallicRoughness" : {"baseColorFactor" : [0.5121614336967468, 0.2084851861000061, 0.05855053663253784, 1], "metallicFactor" : 0, "roughnessFactor" : 0}, "emissiveFactor" : [0, 0, 0], "alphaMode" : "OPAQUE", "doubleSided" : false}], "meshes" : [{"primitives" : [{"attributes" : {"POSITION" : 1, "NORMAL" : 2, "TEXCOORD_0" : 3}, "indices" : 0, "material" : 0, "mode" : 4}, {"attributes" : {"POSITION" : 5, "NORMAL" : 6, "TEXCOORD_0" : 7}, "indices" : 4, "material" : 1, "mode" : 4}, {"attributes" : {"POSITION" : 9, "NORMAL" : 10, "TEXCOORD_0" : 11}, "indices" : 8, "material" : 2, "mode" : 4}, {"attributes" : {"POSITION" : 13, "NORMAL" : 14, "TEXCOORD_0" : 15}, "indices" : 12, "material" : 3, "mode" : 4}], "name" : "Cube.064"}], "nodes" : [{"mesh" : 0, "name" : "Mosque"}], "scene" : 0, "scenes" : [{"nodes" : [0]}]}