{"accessors" : [{"bufferView" : 0, "byteOffset" : 0, "componentType" : 5123, "count" : 216, "type" : "SCALAR", "max" : [215], "min" : [0]}, {"bufferView" : 1, "byteOffset" : 0, "componentType" : 5126, "count" : 216, "type" : "VEC3", "max" : [1.6849985122680664, 1.7839432954788208, 9.5367431640625E-07], "min" : [-2.3772222995758057, -1.8837826251983643, 9.5367431640625E-07], "name" : "POSITION"}, {"bufferView" : 1, "byteOffset" : 12, "componentType" : 5126, "count" : 216, "type" : "VEC3", "max" : [0, 0, 1.0000044107437134], "min" : [0, 0, 1.0000042915344238], "name" : "NORMAL"}, {"bufferView" : 1, "byteOffset" : 24, "componentType" : 5126, "count" : 216, "type" : "VEC2", "max" : [1, -0], "min" : [0, -1], "name" : "TEXCOORD_0"}], "asset" : {"generator" : "Aspose.3D 23.9.0", "version" : "2.0"}, "buffers" : [{"uri" : "data:application/octet-stream;base64,", "byteLength" : 7352}], "bufferViews" : [{"buffer" : 0, "byteOffset" : 0, "byteLength" : 432, "target" : 34963}, {"buffer" : 0, "byteOffset" : 436, "byteLength" : 6912, "byteStride" : 32, "target" : 34962}], "materials" : [{"name" : "Material.003", "pbrMetallicRoughness" : {"baseColorFactor" : [0.12985871732234955, 0.12972208857536316, 0.12148933857679367, 1], "metallicFactor" : 0, "roughnessFactor" : 0}, "emissiveFactor" : [0, 0, 0], "alphaMode" : "OPAQUE", "doubleSided" : false}], "meshes" : [{"primitives" : [{"attributes" : {"POSITION" : 1, "NORMAL" : 2, "TEXCOORD_0" : 3}, "indices" : 0, "material" : 0, "mode" : 4}], "name" : "Plane.001"}], "nodes" : [{"matrix" : [1237.5238037109375, 0, 0, 0, 0, -0.0002549754575766656, -1565.0281982421666, 0, 0, 99.99999999999866, -1.6292067955264296E-05, 0, 0, 2.384185791015625E-05, 0, 1], "mesh" : 0, "name" : "Plane.001"}], "scene" : 0, "scenes" : [{"nodes" : [0]}]}