{"accessors" : [{"bufferView" : 0, "byteOffset" : 0, "componentType" : 5123, "count" : 528, "type" : "SCALAR", "max" : [527], "min" : [0]}, {"bufferView" : 1, "byteOffset" : 0, "componentType" : 5126, "count" : 528, "type" : "VEC3", "max" : [139.65713500976562, 9.5367431640625E-05, 191.3761444091797], "min" : [-151.7212371826172, -37.588951110839844, -147.51524353027344], "name" : "POSITION"}, {"bufferView" : 1, "byteOffset" : 12, "componentType" : 5126, "count" : 528, "type" : "VEC3", "max" : [0.7071098685264587, 0.9045380353927612, 0.7071098685264587], "min" : [-0.7071098685264587, -0.9045380353927612, -0.7071098685264587], "name" : "NORMAL"}, {"bufferView" : 1, "byteOffset" : 24, "componentType" : 5126, "count" : 528, "type" : "VEC2", "max" : [1, -0], "min" : [0, -1], "name" : "TEXCOORD_0"}], "asset" : {"generator" : "Aspose.3D 23.9.0", "version" : "2.0"}, "buffers" : [{"uri" : "data:application/octet-stream;base64,", "byteLength" : 17960}], "bufferViews" : [{"buffer" : 0, "byteOffset" : 0, "byteLength" : 1056, "target" : 34963}, {"buffer" : 0, "byteOffset" : 1060, "byteLength" : 16896, "byteStride" : 32, "target" : 34962}], "materials" : [{"name" : "Material.003", "pbrMetallicRoughness" : {"baseColorFactor" : [0.12985871732234955, 0.12972208857536316, 0.12148933857679367, 1], "metallicFactor" : 0, "roughnessFactor" : 0}, "emissiveFactor" : [0, 0, 0], "alphaMode" : "OPAQUE", "doubleSided" : false}], "meshes" : [{"primitives" : [{"attributes" : {"POSITION" : 1, "NORMAL" : 2, "TEXCOORD_0" : 3}, "indices" : 0, "material" : 0, "mode" : 4}], "name" : "Plane.001"}], "nodes" : [{"matrix" : [12.375237464904785, 0, 0, 0, 0, 0.999999999999981, -1.94707183709396E-07, 0, 0, 3.0472221285130466E-06, 15.650280952453317, 0, 0, 2.384185791015625E-05, 0, 1], "mesh" : 0, "name" : "path_level_01"}], "scene" : 0, "scenes" : [{"nodes" : [0]}]}