{"accessors" : [{"bufferView" : 0, "byteOffset" : 0, "componentType" : 5123, "count" : 2880, "type" : "SCALAR", "max" : [2879], "min" : [0]}, {"bufferView" : 1, "byteOffset" : 0, "componentType" : 5126, "count" : 2880, "type" : "VEC3", "max" : [0.15041249990463257, 0.0942709818482399, 3.5373058319091797], "min" : [-0.14486049115657806, -0.2896703779697418, 3.3540825843811035], "name" : "POSITION"}, {"bufferView" : 1, "byteOffset" : 12, "componentType" : 5126, "count" : 2880, "type" : "VEC3", "max" : [0.9775448441505432, 0.9598984122276306, 1.0000044107437134], "min" : [-0.9775447845458984, -0.959897518157959, -0.9935348629951477], "name" : "NORMAL"}, {"bufferView" : 1, "byteOffset" : 24, "componentType" : 5126, "count" : 2880, "type" : "VEC2", "max" : [1.0000001192092896, -0], "min" : [0, -0.4375], "name" : "TEXCOORD_0"}, {"bufferView" : 0, "byteOffset" : 5760, "componentType" : 5123, "count" : 258, "type" : "SCALAR", "max" : [257], "min" : [0]}, {"bufferView" : 2, "byteOffset" : 0, "componentType" : 5126, "count" : 258, "type" : "VEC3", "max" : [0.1175394132733345, -0.1980130970478058, 3.191979169845581], "min" : [-0.11482193320989609, -0.30608925223350525, 3.1424407958984375], "name" : "POSITION"}, {"bufferView" : 2, "byteOffset" : 12, "componentType" : 5126, "count" : 258, "type" : "VEC3", "max" : [0.8400047421455383, 0.3115205764770508, 0.9816696643829346], "min" : [-0.8400048017501831, -0.9124839305877686, -0.9632026553153992], "name" : "NORMAL"}, {"bufferView" : 2, "byteOffset" : 24, "componentType" : 5126, "count" : 258, "type" : "VEC2", "max" : [0, -0], "min" : [0, -0], "name" : "TEXCOORD_0"}, {"bufferView" : 0, "byteOffset" : 6276, "componentType" : 5123, "count" : 4176, "type" : "SCALAR", "max" : [4175], "min" : [0]}, {"bufferView" : 3, "byteOffset" : 0, "componentType" : 5126, "count" : 4176, "type" : "VEC3", "max" : [0.9806137681007385, 0.19339606165885925, 3.5008034706115723], "min" : [-0.9778963923454285, -0.40705427527427673, 0.004839420318603516], "name" : "POSITION"}, {"bufferView" : 3, "byteOffset" : 12, "componentType" : 5126, "count" : 4176, "type" : "VEC3", "max" : [0.9968631267547607, 1, 1.0000044107437134], "min" : [-0.9968631863594055, -0.9949595332145691, -1.0000044107437134], "name" : "NORMAL"}, {"bufferView" : 3, "byteOffset" : 24, "componentType" : 5126, "count" : 4176, "type" : "VEC2", "max" : [0, -0], "min" : [0, -0], "name" : "TEXCOORD_0"}, {"bufferView" : 0, "byteOffset" : 14628, "componentType" : 5123, "count" : 372, "type" : "SCALAR", "max" : [371], "min" : [0]}, {"bufferView" : 4, "byteOffset" : 0, "componentType" : 5126, "count" : 372, "type" : "VEC3", "max" : [0.5002180933952332, 0.09493187814950943, 0.11311960220336914], "min" : [-0.49750062823295593, -0.40705427527427673, 0.004839420318603516], "name" : "POSITION"}, {"bufferView" : 4, "byteOffset" : 12, "componentType" : 5126, "count" : 372, "type" : "VEC3", "max" : [0.996863067150116, 0.990047037601471, 0.9994643926620483], "min" : [-0.9968631863594055, -0.9972102642059326, -0.44081032276153564], "name" : "NORMAL"}, {"bufferView" : 4, "byteOffset" : 24, "componentType" : 5126, "count" : 372, "type" : "VEC2", "max" : [0, -0], "min" : [0, -0], "name" : "TEXCOORD_0"}, {"bufferView" : 0, "byteOffset" : 15372, "componentType" : 5123, "count" : 4590, "type" : "SCALAR", "max" : [4589], "min" : [0]}, {"bufferView" : 5, "byteOffset" : 0, "componentType" : 5126, "count" : 4590, "type" : "VEC3", "max" : [-0.7242399454116821, -0.1595577597618103, 1.9156126976013184], "min" : [-0.9271650910377502, -0.25537988543510437, 1.5985164642333984], "name" : "POSITION"}, {"bufferView" : 5, "byteOffset" : 12, "componentType" : 5126, "count" : 4590, "type" : "VEC3", "max" : [0.9998050332069397, 0.9965861439704895, 0.9681681394577026], "min" : [-0.9998071789741516, -0.9721794724464417, -0.9707180857658386], "name" : "NORMAL"}, {"bufferView" : 5, "byteOffset" : 24, "componentType" : 5126, "count" : 4590, "type" : "VEC2", "max" : [1.000000238418579, -0.861507773399353], "min" : [0.9999997615814209, -1], "name" : "TEXCOORD_0"}, {"bufferView" : 0, "byteOffset" : 24552, "componentType" : 5123, "count" : 5652, "type" : "SCALAR", "max" : [5651], "min" : [0]}, {"bufferView" : 6, "byteOffset" : 0, "componentType" : 5126, "count" : 5652, "type" : "VEC3", "max" : [-0.6913456916809082, -0.23557570576667786, 1.6312940120697021], "min" : [-1.1403155326843262, -0.40952548384666443, 1.000565528869629], "name" : "POSITION"}, {"bufferView" : 6, "byteOffset" : 12, "componentType" : 5126, "count" : 5652, "type" : "VEC3", "max" : [0.9987307190895081, 0.9680644273757935, 0.9966350793838501], "min" : [-0.9987306594848633, -0.968065083026886, -0.9966365694999695], "name" : "NORMAL"}, {"bufferView" : 6, "byteOffset" : 24, "componentType" : 5126, "count" : 5652, "type" : "VEC2", "max" : [1, -0.33333051204681396], "min" : [-1.6144522874128597E-07, -1.0020537376403809], "name" : "TEXCOORD_0"}, {"bufferView" : 0, "byteOffset" : 35856, "componentType" : 5123, "count" : 3780, "type" : "SCALAR", "max" : [3779], "min" : [0]}, {"bufferView" : 7, "byteOffset" : 0, "componentType" : 5126, "count" : 3780, "type" : "VEC3", "max" : [0.13098156452178955, -0.13795983791351318, 2.9628641605377197], "min" : [-0.008494509384036064, -0.23880615830421448, 2.7826576232910156], "name" : "POSITION"}, {"bufferView" : 7, "byteOffset" : 12, "componentType" : 5126, "count" : 3780, "type" : "VEC3", "max" : [0.9975995421409607, 0.9379874467849731, 0.9714864492416382], "min" : [-0.997599720954895, -0.9379981756210327, -0.9714682102203369], "name" : "NORMAL"}, {"bufferView" : 7, "byteOffset" : 24, "componentType" : 5126, "count" : 3780, "type" : "VEC2", "max" : [0, -0], "min" : [0, -0], "name" : "TEXCOORD_0"}, {"bufferView" : 0, "byteOffset" : 43416, "componentType" : 5123, "count" : 1104, "type" : "SCALAR", "max" : [1103], "min" : [0]}, {"bufferView" : 8, "byteOffset" : 0, "componentType" : 5126, "count" : 1104, "type" : "VEC3", "max" : [0.4926877021789551, 0.19339606165885925, 2.2066810131073], "min" : [-0.48997026681900024, -0.31215065717697144, 0.166856050491333], "name" : "POSITION"}, {"bufferView" : 8, "byteOffset" : 12, "componentType" : 5126, "count" : 1104, "type" : "VEC3", "max" : [0.9714491367340088, 0.9962982535362244, 0.9998854398727417], "min" : [-0.9714490175247192, -0.9995869994163513, -0.9961785674095154], "name" : "NORMAL"}, {"bufferView" : 8, "byteOffset" : 24, "componentType" : 5126, "count" : 1104, "type" : "VEC2", "max" : [0, -0], "min" : [0, -0], "name" : "TEXCOORD_0"}, {"bufferView" : 0, "byteOffset" : 45624, "componentType" : 5123, "count" : 1770, "type" : "SCALAR", "max" : [1769], "min" : [0]}, {"bufferView" : 9, "byteOffset" : 0, "componentType" : 5126, "count" : 1770, "type" : "VEC3", "max" : [0.9109944105148315, 0.28364261984825134, 3.076889753341675], "min" : [-0.9082769155502319, -0.3224097490310669, 0.6703600883483887], "name" : "POSITION"}, {"bufferView" : 9, "byteOffset" : 12, "componentType" : 5126, "count" : 1770, "type" : "VEC3", "max" : [0.9927882552146912, 0.987466037273407, 0.999420702457428], "min" : [-0.9927883148193359, -0.9778463244438171, -0.8904943466186523], "name" : "NORMAL"}, {"bufferView" : 9, "byteOffset" : 24, "componentType" : 5126, "count" : 1770, "type" : "VEC2", "max" : [0, -0], "min" : [0, -0], "name" : "TEXCOORD_0"}], "asset" : {"generator" : "Aspose.3D 23.9.0", "version" : "2.0"}, "buffers" : [{"uri" : "data:application/octet-stream;base64,", "byteLength" : 835828}], "bufferViews" : [{"buffer" : 0, "byteOffset" : 0, "byteLength" : 49164, "target" : 34963}, {"buffer" : 0, "byteOffset" : 49168, "byteLength" : 92160, "byteStride" : 32, "target" : 34962}, {"buffer" : 0, "byteOffset" : 141332, "byteLength" : 8256, "byteStride" : 32, "target" : 34962}, {"buffer" : 0, "byteOffset" : 149592, "byteLength" : 133632, "byteStride" : 32, "target" : 34962}, {"buffer" : 0, "byteOffset" : 283228, "byteLength" : 11904, "byteStride" : 32, "target" : 34962}, {"buffer" : 0, "byteOffset" : 295136, "byteLength" : 146880, "byteStride" : 32, "target" : 34962}, {"buffer" : 0, "byteOffset" : 442020, "byteLength" : 180864, "byteStride" : 32, "target" : 34962}, {"buffer" : 0, "byteOffset" : 622888, "byteLength" : 120960, "byteStride" : 32, "target" : 34962}, {"buffer" : 0, "byteOffset" : 743852, "byteLength" : 35328, "byteStride" : 32, "target" : 34962}, {"buffer" : 0, "byteOffset" : 779184, "byteLength" : 56640, "byteStride" : 32, "target" : 34962}], "materials" : [{"name" : "Cap", "pbrMetallicRoughness" : {"baseColorFactor" : [0.2697363793849945, 0.2503819763660431, 0.24148611724376678, 1], "metallicFactor" : 0, "roughnessFactor" : 0}, "emissiveFactor" : [0, 0, 0], "alphaMode" : "OPAQUE", "doubleSided" : false}, {"name" : "Material.003", "pbrMetallicRoughness" : {"baseColorFactor" : [0, 0, 0, 1], "metallicFactor" : 0, "roughnessFactor" : 0}, "emissiveFactor" : [0, 0, 0], "alphaMode" : "OPAQUE", "doubleSided" : false}, {"name" : "Body", "pbrMetallicRoughness" : {"baseColorFactor" : [0.6827741265296936, 0.4165582060813904, 0.2610599398612976, 1], "metallicFactor" : 0, "roughnessFactor" : 0}, "emissiveFactor" : [0, 0, 0], "alphaMode" : "OPAQUE", "doubleSided" : false}, {"name" : "Material.001", "pbrMetallicRoughness" : {"baseColorFactor" : [0.0004134963674005121, 0.0003154449805151671, 0.00017778578330762684, 1], "metallicFactor" : 0, "roughnessFactor" : 0}, "emissiveFactor" : [0, 0, 0], "alphaMode" : "OPAQUE", "doubleSided" : false}, {"name" : "Knife handle", "pbrMetallicRoughness" : {"baseColorFactor" : [0.10223852843046188, 0.013877767138183117, 0, 1], "metallicFactor" : 0, "roughnessFactor" : 0}, "emissiveFactor" : [0, 0, 0], "alphaMode" : "OPAQUE", "doubleSided" : false}, {"name" : "Knife Blade", "pbrMetallicRoughness" : {"baseColorFactor" : [0.20668663084506989, 0.20668663084506989, 0.20668663084506989, 1], "metallicFactor" : 0, "roughnessFactor" : 0}, "emissiveFactor" : [0, 0, 0], "alphaMode" : "OPAQUE", "doubleSided" : false}, {"name" : "Buttons", "pbrMetallicRoughness" : {"baseColorFactor" : [0, 0, 0, 1], "metallicFactor" : 0, "roughnessFactor" : 0}, "emissiveFactor" : [0, 0, 0], "alphaMode" : "OPAQUE", "doubleSided" : false}, {"name" : "Shalwar", "pbrMetallicRoughness" : {"baseColorFactor" : [0.8000000715255737, 0.7112227082252502, 0.7378523349761963, 1], "metallicFactor" : 0, "roughnessFactor" : 0}, "emissiveFactor" : [0, 0, 0], "alphaMode" : "OPAQUE", "doubleSided" : false}, {"name" : "Kameez", "pbrMetallicRoughness" : {"baseColorFactor" : [1, 0.9503995180130005, 0.9390882253646851, 1], "metallicFactor" : 0, "roughnessFactor" : 0}, "emissiveFactor" : [0, 0, 0], "alphaMode" : "OPAQUE", "doubleSided" : false}], "meshes" : [{"primitives" : [{"attributes" : {"POSITION" : 1, "NORMAL" : 2, "TEXCOORD_0" : 3}, "indices" : 0, "material" : 0, "mode" : 4}, {"attributes" : {"POSITION" : 5, "NORMAL" : 6, "TEXCOORD_0" : 7}, "indices" : 4, "material" : 1, "mode" : 4}, {"attributes" : {"POSITION" : 9, "NORMAL" : 10, "TEXCOORD_0" : 11}, "indices" : 8, "material" : 2, "mode" : 4}, {"attributes" : {"POSITION" : 13, "NORMAL" : 14, "TEXCOORD_0" : 15}, "indices" : 12, "material" : 3, "mode" : 4}, {"attributes" : {"POSITION" : 17, "NORMAL" : 18, "TEXCOORD_0" : 19}, "indices" : 16, "material" : 4, "mode" : 4}, {"attributes" : {"POSITION" : 21, "NORMAL" : 22, "TEXCOORD_0" : 23}, "indices" : 20, "material" : 5, "mode" : 4}, {"attributes" : {"POSITION" : 25, "NORMAL" : 26, "TEXCOORD_0" : 27}, "indices" : 24, "material" : 6, "mode" : 4}, {"attributes" : {"POSITION" : 29, "NORMAL" : 30, "TEXCOORD_0" : 31}, "indices" : 28, "material" : 7, "mode" : 4}, {"attributes" : {"POSITION" : 33, "NORMAL" : 34, "TEXCOORD_0" : 35}, "indices" : 32, "material" : 8, "mode" : 4}], "name" : "Sphere"}], "nodes" : [{"matrix" : [100, 0, 0, 0, 0, -1.6292067955264296E-05, -99.99999999999866, 0, 0, 99.99999999999866, -1.6292067955264296E-05, 0, 0, 0, 0, 1], "mesh" : 0, "name" : "Qassai"}], "scene" : 0, "scenes" : [{"nodes" : [0]}]}