{"accessors" : [{"bufferView" : 0, "byteOffset" : 0, "componentType" : 5123, "count" : 168, "type" : "SCALAR", "max" : [167], "min" : [0]}, {"bufferView" : 1, "byteOffset" : 0, "componentType" : 5126, "count" : 168, "type" : "VEC3", "max" : [1132.7606201171875, -276.312255859375, 551.2435913085938], "min" : [-1061.151123046875, -761.9155883789062, 26.325225830078125], "name" : "POSITION"}, {"bufferView" : 1, "byteOffset" : 12, "componentType" : 5126, "count" : 168, "type" : "VEC3", "max" : [1.0000044107437134, 1.0000044107437134, 1.0000044107437134], "min" : [-1.0000044107437134, -1.9116612293146318E-07, -1.0000044107437134], "name" : "NORMAL"}, {"bufferView" : 1, "byteOffset" : 24, "componentType" : 5126, "count" : 168, "type" : "VEC2", "max" : [0.8745694756507874, -0], "min" : [0.375, -1], "name" : "TEXCOORD_0"}, {"bufferView" : 0, "byteOffset" : 336, "componentType" : 5123, "count" : 4008, "type" : "SCALAR", "max" : [4007], "min" : [0]}, {"bufferView" : 2, "byteOffset" : 0, "componentType" : 5126, "count" : 4008, "type" : "VEC3", "max" : [1378.2119140625, 807.4945678710938, 734.2979736328125], "min" : [-1295.597900390625, -761.9155883789062, -811.5554809570312], "name" : "POSITION"}, {"bufferView" : 2, "byteOffset" : 12, "componentType" : 5126, "count" : 4008, "type" : "VEC3", "max" : [1.0000044107437134, 1.0000044107437134, 1.0000044107437134], "min" : [-1.0000044107437134, -1.0000044107437134, -1.0000044107437134], "name" : "NORMAL"}, {"bufferView" : 2, "byteOffset" : 24, "componentType" : 5126, "count" : 4008, "type" : "VEC2", "max" : [0.875, -0], "min" : [0.125, -1.000348687171936], "name" : "TEXCOORD_0"}, {"bufferView" : 0, "byteOffset" : 8352, "componentType" : 5123, "count" : 18816, "type" : "SCALAR", "max" : [18815], "min" : [0]}, {"bufferView" : 3, "byteOffset" : 0, "componentType" : 5126, "count" : 18816, "type" : "VEC3", "max" : [967.8451538085938, -75.99601745605469, 727.37353515625], "min" : [-900.0686645507812, -755.2057495117188, 214.2120361328125], "name" : "POSITION"}, {"bufferView" : 3, "byteOffset" : 12, "componentType" : 5126, "count" : 18816, "type" : "VEC3", "max" : [1.0000044107437134, 1.0000044107437134, 1.0000044107437134], "min" : [-1.0000044107437134, -0.999998152256012, -0.995280921459198], "name" : "NORMAL"}, {"bufferView" : 3, "byteOffset" : 24, "componentType" : 5126, "count" : 18816, "type" : "VEC2", "max" : [0.6197725534439087, -0], "min" : [0, -0.9947724938392639], "name" : "TEXCOORD_0"}, {"bufferView" : 0, "byteOffset" : 45984, "componentType" : 5123, "count" : 29556, "type" : "SCALAR", "max" : [29555], "min" : [0]}, {"bufferView" : 4, "byteOffset" : 0, "componentType" : 5126, "count" : 29556, "type" : "VEC3", "max" : [1590.708984375, 814.909912109375, 852.0004272460938], "min" : [-1781.427001953125, -975.7510986328125, -963.048583984375], "name" : "POSITION"}, {"bufferView" : 4, "byteOffset" : 12, "componentType" : 5126, "count" : 29556, "type" : "VEC3", "max" : [0.9999952912330627, 0.9999977946281433, 0.9999555349349976], "min" : [-1.0000040531158447, -0.8160874247550964, -1.0000028610229492], "name" : "NORMAL"}, {"bufferView" : 4, "byteOffset" : 24, "componentType" : 5126, "count" : 29556, "type" : "VEC2", "max" : [1.0000001192092896, -0], "min" : [0, -1.0000001192092896], "name" : "TEXCOORD_0"}], "asset" : {"generator" : "Aspose.3D 23.9.0", "version" : "2.0"}, "buffers" : [{"uri" : "data:application/octet-stream;base64,", "byteLength" : 1786652}], "bufferViews" : [{"buffer" : 0, "byteOffset" : 0, "byteLength" : 105096, "target" : 34963}, {"buffer" : 0, "byteOffset" : 105100, "byteLength" : 5376, "byteStride" : 32, "target" : 34962}, {"buffer" : 0, "byteOffset" : 110480, "byteLength" : 128256, "byteStride" : 32, "target" : 34962}, {"buffer" : 0, "byteOffset" : 238740, "byteLength" : 602112, "byteStride" : 32, "target" : 34962}, {"buffer" : 0, "byteOffset" : 840856, "byteLength" : 945792, "byteStride" : 32, "target" : 34962}], "materials" : [{"name" : "Med Wood ", "pbrMetallicRoughness" : {"baseColorFactor" : [0.29892924427986145, 0.11658977717161179, 0.032941680401563644, 1], "metallicFactor" : 0, "roughnessFactor" : 0}, "emissiveFactor" : [0, 0, 0], "alphaMode" : "OPAQUE", "doubleSided" : false}, {"name" : "iDark wood", "pbrMetallicRoughness" : {"baseColorFactor" : [0.12259203940629959, 0.05203627049922943, 0.00465341517701745, 1], "metallicFactor" : 0, "roughnessFactor" : 0}, "emissiveFactor" : [0, 0, 0], "alphaMode" : "OPAQUE", "doubleSided" : false}, {"name" : "Material.013", "pbrMetallicRoughness" : {"baseColorFactor" : [0.10875167697668076, 0.02173292636871338, 0.00742828706279397, 1], "metallicFactor" : 0, "roughnessFactor" : 0}, "emissiveFactor" : [0, 0, 0], "alphaMode" : "OPAQUE", "doubleSided" : false}, {"name" : "Red", "pbrMetallicRoughness" : {"baseColorFactor" : [0.8000000715255737, 0.017030755057930946, 0.010964274406433105, 1], "metallicFactor" : 0, "roughnessFactor" : 0}, "emissiveFactor" : [0, 0, 0], "alphaMode" : "OPAQUE", "doubleSided" : false}], "meshes" : [{"primitives" : [{"attributes" : {"POSITION" : 1, "NORMAL" : 2, "TEXCOORD_0" : 3}, "indices" : 0, "material" : 0, "mode" : 4}, {"attributes" : {"POSITION" : 5, "NORMAL" : 6, "TEXCOORD_0" : 7}, "indices" : 4, "material" : 1, "mode" : 4}, {"attributes" : {"POSITION" : 9, "NORMAL" : 10, "TEXCOORD_0" : 11}, "indices" : 8, "material" : 2, "mode" : 4}, {"attributes" : {"POSITION" : 13, "NORMAL" : 14, "TEXCOORD_0" : 15}, "indices" : 12, "material" : 3, "mode" : 4}], "name" : "Cube.170"}], "nodes" : [{"matrix" : [0.2563534080982208, 0, 0, 0, 0, 0.40318462252616116, -7.850294236700623E-08, 0, 0, 7.05935537463453E-08, 0.362562656402581, 0, 0.000762939453125, 306.25250244140625, -0.00019073486328125, 1], "mesh" : 0, "name" : "rehri"}], "scene" : 0, "scenes" : [{"nodes" : [0]}]}