{"accessors" : [{"bufferView" : 0, "byteOffset" : 0, "componentType" : 5123, "count" : 150, "type" : "SCALAR", "max" : [149], "min" : [0]}, {"bufferView" : 1, "byteOffset" : 0, "componentType" : 5126, "count" : 150, "type" : "VEC3", "max" : [331.68145751953125, 18.066328048706055, 640.57568359375], "min" : [-6.910133361816406, -8.429033279418945, -3.596210479736328], "name" : "POSITION"}, {"bufferView" : 1, "byteOffset" : 12, "componentType" : 5126, "count" : 150, "type" : "VEC3", "max" : [0.9238839745521545, 1.0000044107437134, 0.9238840937614441], "min" : [-0.9238840937614441, -1.0000044107437134, -0.9238840937614441], "name" : "NORMAL"}, {"bufferView" : 1, "byteOffset" : 24, "componentType" : 5126, "count" : 150, "type" : "VEC2", "max" : [0.875, -0], "min" : [0, -1], "name" : "TEXCOORD_0"}, {"bufferView" : 0, "byteOffset" : 300, "componentType" : 5123, "count" : 18, "type" : "SCALAR", "max" : [17], "min" : [0]}, {"bufferView" : 2, "byteOffset" : 0, "componentType" : 5126, "count" : 18, "type" : "VEC3", "max" : [331.68145751953125, -8.429033279418945, 640.57568359375], "min" : [131.6814422607422, -8.429033279418945, 440.57568359375], "name" : "POSITION"}, {"bufferView" : 2, "byteOffset" : 12, "componentType" : 5126, "count" : 18, "type" : "VEC3", "max" : [3.292732975168633E-09, 1.0000042915344238, 0], "min" : [3.292732975168633E-09, 1.0000042915344238, 0], "name" : "NORMAL"}, {"bufferView" : 2, "byteOffset" : 24, "componentType" : 5126, "count" : 18, "type" : "VEC2", "max" : [0.9998998641967773, -9.998000314226374E-05], "min" : [9.998000314226374E-05, -0.9999000430107117], "name" : "TEXCOORD_0"}], "asset" : {"generator" : "Aspose.3D 23.9.0", "version" : "2.0"}, "buffers" : [{"uri" : "data:application/octet-stream;base64,", "byteLength" : 5724}], "bufferViews" : [{"buffer" : 0, "byteOffset" : 0, "byteLength" : 336, "target" : 34963}, {"buffer" : 0, "byteOffset" : 340, "byteLength" : 4800, "byteStride" : 32, "target" : 34962}, {"buffer" : 0, "byteOffset" : 5144, "byteLength" : 576, "byteStride" : 32, "target" : 34962}], "images" : [{"uri" : "C:\\Users\\abdul\\Downloads\\000000000001.png"}], "materials" : [{"name" : "Stop Sign Pole.001", "pbrMetallicRoughness" : {"baseColorFactor" : [0.14125970005989075, 0.14125970005989075, 0.14125970005989075, 1], "metallicFactor" : 0, "roughnessFactor" : 0}, "emissiveFactor" : [0, 0, 0], "alphaMode" : "OPAQUE", "doubleSided" : false}, {"name" : "stop sign.001", "pbrMetallicRoughness" : {"baseColorFactor" : [0.800000011920929, 0.800000011920929, 0.800000011920929, 1], "baseColorTexture" : {"index" : 0, "texCoord" : 0}, "metallicFactor" : 0, "roughnessFactor" : 0}, "emissiveFactor" : [0, 0, 0], "alphaMode" : "OPAQUE", "doubleSided" : false}], "meshes" : [{"primitives" : [{"attributes" : {"POSITION" : 1, "NORMAL" : 2, "TEXCOORD_0" : 3}, "indices" : 0, "material" : 0, "mode" : 4}, {"attributes" : {"POSITION" : 5, "NORMAL" : 6, "TEXCOORD_0" : 7}, "indices" : 4, "material" : 1, "mode" : 4}], "name" : "Circle.027"}], "nodes" : [{"matrix" : [-3.9327504480406244E-07, 0.17034569560353893, -0.3969946564167592, 0, -0.4319981634615058, -1.389889424318135E-07, 3.6831208341845146E-07, 0, 1.7505886002056994E-08, 0.3969946564169296, 0.17034569560359475, 0, -5.6843418860808015E-12, 2.384185791015625E-05, -5.9604362832033075E-06, 1], "mesh" : 0, "name" : "Stop Sign plate.004"}], "samplers" : [{"magFilter" : 9729, "minFilter" : 9729, "wrapS" : 10497, "wrapT" : 10497}], "scene" : 0, "scenes" : [{"nodes" : [0]}], "textures" : [{"sampler" : 0, "source" : 0, "name" : "base_color_texture"}]}