{"accessors" : [{"bufferView" : 0, "byteOffset" : 0, "componentType" : 5123, "count" : 951, "type" : "SCALAR", "max" : [950], "min" : [0]}, {"bufferView" : 1, "byteOffset" : 0, "componentType" : 5126, "count" : 951, "type" : "VEC3", "max" : [100, 3710.084228515625, 195.36605834960938], "min" : [-1049.6837158203125, 0, -195.3660125732422], "name" : "POSITION"}, {"bufferView" : 1, "byteOffset" : 12, "componentType" : 5126, "count" : 951, "type" : "VEC3", "max" : [1.0000044107437134, 1.0000044107437134, 0.9943749308586121], "min" : [-1.0000044107437134, -1.0000044107437134, -0.9943749308586121], "name" : "NORMAL"}, {"bufferView" : 1, "byteOffset" : 24, "componentType" : 5126, "count" : 951, "type" : "VEC2", "max" : [0, -0], "min" : [0, -0], "name" : "TEXCOORD_0"}, {"bufferView" : 0, "byteOffset" : 1904, "componentType" : 5123, "count" : 36, "type" : "SCALAR", "max" : [35], "min" : [0]}, {"bufferView" : 2, "byteOffset" : 0, "componentType" : 5126, "count" : 36, "type" : "VEC3", "max" : [-510.60882568359375, 3512.251708984375, 168.36325073242188], "min" : [-1031.4598388671875, 3512.251708984375, -168.36325073242188], "name" : "POSITION"}, {"bufferView" : 2, "byteOffset" : 12, "componentType" : 5126, "count" : 36, "type" : "VEC3", "max" : [4.431397428561468E-06, -1.0000042915344238, 0], "min" : [-6.024015988259634E-07, -1.0000044107437134, 0], "name" : "NORMAL"}, {"bufferView" : 2, "byteOffset" : 24, "componentType" : 5126, "count" : 36, "type" : "VEC2", "max" : [0, -0], "min" : [0, -0], "name" : "TEXCOORD_0"}], "asset" : {"generator" : "Aspose.3D 23.9.0", "version" : "2.0"}, "buffers" : [{"uri" : "data:application/octet-stream;base64,", "byteLength" : 33572}], "bufferViews" : [{"buffer" : 0, "byteOffset" : 0, "byteLength" : 1976, "target" : 34963}, {"buffer" : 0, "byteOffset" : 1980, "byteLength" : 30432, "byteStride" : 32, "target" : 34962}, {"buffer" : 0, "byteOffset" : 32416, "byteLength" : 1152, "byteStride" : 32, "target" : 34962}], "materials" : [{"name" : "Street Light metal", "pbrMetallicRoughness" : {"baseColorFactor" : [0.4262140691280365, 0.4262140691280365, 0.4262140691280365, 1], "metallicFactor" : 0, "roughnessFactor" : 0}, "emissiveFactor" : [0, 0, 0], "alphaMode" : "OPAQUE", "doubleSided" : false}, {"name" : "Street Light light", "pbrMetallicRoughness" : {"baseColorFactor" : [0.800000011920929, 0.800000011920929, 0.800000011920929, 1], "metallicFactor" : 0, "roughnessFactor" : 0}, "emissiveFactor" : [0, 0, 0], "alphaMode" : "OPAQUE", "doubleSided" : false}], "meshes" : [{"primitives" : [{"attributes" : {"POSITION" : 1, "NORMAL" : 2, "TEXCOORD_0" : 3}, "indices" : 0, "material" : 0, "mode" : 4}, {"attributes" : {"POSITION" : 5, "NORMAL" : 6, "TEXCOORD_0" : 7}, "indices" : 4, "material" : 1, "mode" : 4}], "name" : "Circle.004"}], "nodes" : [{"matrix" : [-0.24617037177083917, -2.1520897410331613E-08, 9.58622821449401E-08, 0, -2.6500451167593182E-08, 0.30313009023665693, 5.9021610475289085E-08, 0, -9.586228633521156E-08, 4.793113491794324E-08, -0.24617037177083542, 0, 0, 0, 0, 1], "mesh" : 0, "name" : "street_light"}], "scene" : 0, "scenes" : [{"nodes" : [0]}]}