{"accessors" : [{"bufferView" : 0, "byteOffset" : 0, "componentType" : 5123, "count" : 1077, "type" : "SCALAR", "max" : [1076], "min" : [0]}, {"bufferView" : 1, "byteOffset" : 0, "componentType" : 5126, "count" : 1077, "type" : "VEC3", "max" : [25689.041015625, 93896.390625, 29057.458984375], "min" : [-25689.044921875, 9921.0361328125, -29057.458984375], "name" : "POSITION"}, {"bufferView" : 1, "byteOffset" : 12, "componentType" : 5126, "count" : 1077, "type" : "VEC3", "max" : [0.9626234769821167, 0.8574544787406921, 0.9437409043312073], "min" : [-0.9824628233909607, -0.9998871088027954, -0.9467647075653076], "name" : "NORMAL"}, {"bufferView" : 1, "byteOffset" : 24, "componentType" : 5126, "count" : 1077, "type" : "VEC3", "max" : [1, 1, 1], "min" : [1, 1, 1], "name" : "COLOR_0"}, {"bufferView" : 1, "byteOffset" : 36, "componentType" : 5126, "count" : 1077, "type" : "VEC2", "max" : [0.9899999499320984, -0.009999970905482769], "min" : [0.010000014677643776, -0.9900000095367432], "name" : "TEXCOORD_0"}, {"bufferView" : 1, "byteOffset" : 44, "componentType" : 5126, "count" : 1077, "type" : "VEC2", "max" : [0.9899999499320984, -0.009999970905482769], "min" : [0.010000014677643776, -0.9900000095367432], "name" : "TEXCOORD_1"}, {"bufferView" : 0, "byteOffset" : 2156, "componentType" : 5123, "count" : 120, "type" : "SCALAR", "max" : [119], "min" : [0]}, {"bufferView" : 2, "byteOffset" : 0, "componentType" : 5126, "count" : 120, "type" : "VEC3", "max" : [5266.96630859375, 21186.08984375, 6669.46240234375], "min" : [-5601.130859375, -1382.47265625, -5274.630859375], "name" : "POSITION"}, {"bufferView" : 2, "byteOffset" : 12, "componentType" : 5126, "count" : 120, "type" : "VEC3", "max" : [0.9778375625610352, 0.5824447870254517, 0.9966639280319214], "min" : [-0.996643602848053, -0.02804371900856495, -0.9610981345176697], "name" : "NORMAL"}, {"bufferView" : 2, "byteOffset" : 24, "componentType" : 5126, "count" : 120, "type" : "VEC3", "max" : [1, 1, 1], "min" : [1, 1, 1], "name" : "COLOR_0"}, {"bufferView" : 2, "byteOffset" : 36, "componentType" : 5126, "count" : 120, "type" : "VEC2", "max" : [0.6991484761238098, -0.678995668888092], "min" : [0.420895516872406, -0.9818238615989685], "name" : "TEXCOORD_0"}, {"bufferView" : 2, "byteOffset" : 44, "componentType" : 5126, "count" : 120, "type" : "VEC2", "max" : [0.6991484761238098, -0.678995668888092], "min" : [0.420895516872406, -0.9818238615989685], "name" : "TEXCOORD_1"}], "asset" : {"generator" : "Aspose.3D 23.9.0", "version" : "2.0"}, "buffers" : [{"uri" : "data:application/octet-stream;base64,", "byteLength" : 64652}], "bufferViews" : [{"buffer" : 0, "byteOffset" : 0, "byteLength" : 2396, "target" : 34963}, {"buffer" : 0, "byteOffset" : 2400, "byteLength" : 56004, "byteStride" : 52, "target" : 34962}, {"buffer" : 0, "byteOffset" : 58408, "byteLength" : 6240, "byteStride" : 52, "target" : 34962}], "materials" : [{"name" : "Fir Tree", "pbrMetallicRoughness" : {"baseColorFactor" : [0.06487485766410828, 0.32983940839767456, 0.05422776937484741, 1], "metallicFactor" : 0, "roughnessFactor" : 0}, "emissiveFactor" : [0, 0, 0], "alphaMode" : "OPAQUE", "doubleSided" : false}, {"name" : "Tree Trunk", "pbrMetallicRoughness" : {"baseColorFactor" : [0.5529412031173706, 0.4901961088180542, 0.3137255012989044, 1], "metallicFactor" : 0, "roughnessFactor" : 0}, "emissiveFactor" : [0, 0, 0], "alphaMode" : "OPAQUE", "doubleSided" : false}], "meshes" : [{"primitives" : [{"attributes" : {"POSITION" : 1, "NORMAL" : 2, "COLOR_0" : 3, "TEXCOORD_0" : 4, "TEXCOORD_1" : 5}, "indices" : 0, "material" : 0, "mode" : 4}, {"attributes" : {"POSITION" : 7, "NORMAL" : 8, "COLOR_0" : 9, "TEXCOORD_0" : 10, "TEXCOORD_1" : 11}, "indices" : 6, "material" : 1, "mode" : 4}], "name" : "Mesh.016"}], "nodes" : [{"matrix" : [4.6155348099123386E-10, 0, -0.006113461218774301, 0, -3.98216307115475E-10, 0.009110125713050357, -3.006449475334559E-17, 0, 0.006079342216253257, 2.6573653133892945E-10, 4.5897756796619074E-10, 0, 0, 0, 0, 1], "mesh" : 0, "name" : "LowPolyFirTree_01.015"}], "scene" : 0, "scenes" : [{"nodes" : [0]}]}