{"accessors" : [{"bufferView" : 0, "byteOffset" : 0, "componentType" : 5123, "count" : 384, "type" : "SCALAR", "max" : [383], "min" : [0]}, {"bufferView" : 1, "byteOffset" : 0, "componentType" : 5126, "count" : 384, "type" : "VEC3", "max" : [125.23638916015625, 245.67303466796875, 125.23638916015625], "min" : [-125.23638916015625, 0, -125.23638916015625], "name" : "POSITION"}, {"bufferView" : 1, "byteOffset" : 12, "componentType" : 5126, "count" : 384, "type" : "VEC3", "max" : [0.9238835573196411, 1.0000044107437134, 0.9238836169242859], "min" : [-0.9238835573196411, -0.9998746514320374, -0.9238835573196411], "name" : "NORMAL"}, {"bufferView" : 1, "byteOffset" : 24, "componentType" : 5126, "count" : 384, "type" : "VEC2", "max" : [0, -0], "min" : [0, -0], "name" : "TEXCOORD_0"}, {"bufferView" : 0, "byteOffset" : 768, "componentType" : 5123, "count" : 96, "type" : "SCALAR", "max" : [95], "min" : [0]}, {"bufferView" : 2, "byteOffset" : 0, "componentType" : 5126, "count" : 96, "type" : "VEC3", "max" : [64.65296936035156, 174.5679473876953, 64.65296936035156], "min" : [-64.65296936035156, 57.473236083984375, -64.65296936035156], "name" : "POSITION"}, {"bufferView" : 2, "byteOffset" : 12, "componentType" : 5126, "count" : 96, "type" : "VEC3", "max" : [0.904328465461731, 0.20465821027755737, 0.904328465461731], "min" : [-0.9043283462524414, 0.20465801656246185, -0.904328465461731], "name" : "NORMAL"}, {"bufferView" : 2, "byteOffset" : 24, "componentType" : 5126, "count" : 96, "type" : "VEC2", "max" : [0, -0], "min" : [0, -0], "name" : "TEXCOORD_0"}], "asset" : {"generator" : "Aspose.3D 23.9.0", "version" : "2.0"}, "buffers" : [{"uri" : "data:application/octet-stream;base64,", "byteLength" : 16332}], "bufferViews" : [{"buffer" : 0, "byteOffset" : 0, "byteLength" : 960, "target" : 34963}, {"buffer" : 0, "byteOffset" : 964, "byteLength" : 12288, "byteStride" : 32, "target" : 34962}, {"buffer" : 0, "byteOffset" : 13256, "byteLength" : 3072, "byteStride" : 32, "target" : 34962}], "materials" : [{"name" : "Traffic Cone", "pbrMetallicRoughness" : {"baseColorFactor" : [1, 0.18617142736911774, 0.008173669688403606, 1], "metallicFactor" : 0, "roughnessFactor" : 0}, "emissiveFactor" : [0, 0, 0], "alphaMode" : "OPAQUE", "doubleSided" : false}, {"name" : "Traffic cone stripes", "pbrMetallicRoughness" : {"baseColorFactor" : [1, 1, 1, 1], "metallicFactor" : 0, "roughnessFactor" : 0}, "emissiveFactor" : [0, 0, 0], "alphaMode" : "OPAQUE", "doubleSided" : false}], "meshes" : [{"primitives" : [{"attributes" : {"POSITION" : 1, "NORMAL" : 2, "TEXCOORD_0" : 3}, "indices" : 0, "material" : 0, "mode" : 4}, {"attributes" : {"POSITION" : 5, "NORMAL" : 6, "TEXCOORD_0" : 7}, "indices" : 4, "material" : 1, "mode" : 4}], "name" : "Circle.031"}], "nodes" : [{"matrix" : [5.83230077865254E-08, 0, -0.7725116610527016, 0, -3.3767559916820266E-08, 0.7725116610527031, -2.5493798466121986E-15, 0, 0.7725116610527009, 3.376755991682036E-08, 5.832300778652534E-08, 0, 0, 0, 0, 1], "mesh" : 0, "name" : "Circle.024"}], "scene" : 0, "scenes" : [{"nodes" : [0]}]}